<svg width="122" height="24" viewBox="0 0 122 24" fill="none" xmlns="http://www.w3.org/2000/svg">
<path d="M34.5719 18H30.4469V6.36364H34.606C35.7765 6.36364 36.784 6.59659 37.6287 7.0625C38.4734 7.52462 39.123 8.18939 39.5776 9.05682C40.0359 9.92424 40.2651 10.9621 40.2651 12.1705C40.2651 13.3826 40.0359 14.4242 39.5776 15.2955C39.123 16.1667 38.4696 16.8352 37.6174 17.3011C36.7689 17.767 35.7537 18 34.5719 18ZM32.9071 15.892H34.4696C35.1969 15.892 35.8087 15.7633 36.3049 15.5057C36.8049 15.2443 37.1799 14.8409 37.4299 14.2955C37.6837 13.7462 37.8105 13.0379 37.8105 12.1705C37.8105 11.3106 37.6837 10.608 37.4299 10.0625C37.1799 9.51705 36.8068 9.11553 36.3105 8.85795C35.8143 8.60038 35.2026 8.47159 34.4753 8.47159H32.9071V15.892ZM42.0421 18V9.27273H44.4625V18H42.0421ZM43.258 8.14773C42.8981 8.14773 42.5894 8.02841 42.3319 7.78977C42.0781 7.54735 41.9512 7.25758 41.9512 6.92045C41.9512 6.58712 42.0781 6.30114 42.3319 6.0625C42.5894 5.82008 42.8981 5.69886 43.258 5.69886C43.6178 5.69886 43.9247 5.82008 44.1784 6.0625C44.436 6.30114 44.5648 6.58712 44.5648 6.92045C44.5648 7.25758 44.436 7.54735 44.1784 7.78977C43.9247 8.02841 43.6178 8.14773 43.258 8.14773ZM48.8219 12.9545V18H46.4015V9.27273H48.7083V10.8125H48.8105C49.0037 10.3049 49.3276 9.90341 49.7821 9.60795C50.2367 9.30871 50.7878 9.15909 51.4355 9.15909C52.0416 9.15909 52.57 9.29167 53.0208 9.55682C53.4715 9.82197 53.8219 10.2008 54.0719 10.6932C54.3219 11.1818 54.4469 11.7652 54.4469 12.4432V18H52.0265V12.875C52.0302 12.3409 51.8939 11.9242 51.6174 11.625C51.3409 11.322 50.9602 11.1705 50.4753 11.1705C50.1496 11.1705 49.8617 11.2405 49.6117 11.3807C49.3655 11.5208 49.1723 11.7254 49.0321 11.9943C48.8958 12.2595 48.8257 12.5795 48.8219 12.9545ZM58.8432 18.1648C58.2864 18.1648 57.7902 18.0682 57.3546 17.875C56.919 17.678 56.5743 17.3883 56.3205 17.0057C56.0705 16.6193 55.9455 16.1383 55.9455 15.5625C55.9455 15.0777 56.0345 14.6705 56.2125 14.3409C56.3906 14.0114 56.633 13.7462 56.9398 13.5455C57.2466 13.3447 57.5951 13.1932 57.9853 13.0909C58.3792 12.9886 58.7921 12.9167 59.2239 12.875C59.7315 12.822 60.1406 12.7727 60.4512 12.7273C60.7618 12.678 60.9872 12.6061 61.1273 12.5114C61.2675 12.4167 61.3375 12.2765 61.3375 12.0909V12.0568C61.3375 11.697 61.2239 11.4186 60.9966 11.2216C60.7731 11.0246 60.455 10.9261 60.0421 10.9261C59.6065 10.9261 59.2599 11.0227 59.0023 11.2159C58.7447 11.4053 58.5743 11.6439 58.4909 11.9318L56.2523 11.75C56.3659 11.2197 56.5894 10.7614 56.9228 10.375C57.2561 9.98485 57.686 9.68561 58.2125 9.47727C58.7428 9.26515 59.3565 9.15909 60.0534 9.15909C60.5383 9.15909 61.0023 9.21591 61.4455 9.32955C61.8925 9.44318 62.2883 9.61932 62.633 9.85795C62.9815 10.0966 63.2561 10.4034 63.4569 10.7784C63.6576 11.1496 63.758 11.5947 63.758 12.1136V18H61.4625V16.7898H61.3944C61.2542 17.0625 61.0667 17.303 60.8319 17.5114C60.597 17.7159 60.3148 17.8769 59.9853 17.9943C59.6557 18.108 59.275 18.1648 58.8432 18.1648ZM59.5364 16.4943C59.8925 16.4943 60.2069 16.4242 60.4796 16.2841C60.7523 16.1402 60.9663 15.947 61.1216 15.7045C61.2769 15.4621 61.3546 15.1875 61.3546 14.8807V13.9545C61.2788 14.0038 61.1747 14.0492 61.0421 14.0909C60.9133 14.1288 60.7675 14.1648 60.6046 14.1989C60.4417 14.2292 60.2788 14.2576 60.1159 14.2841C59.9531 14.3068 59.8053 14.3277 59.6728 14.3466C59.3887 14.3883 59.1406 14.4545 58.9284 14.5455C58.7163 14.6364 58.5516 14.7595 58.4341 14.9148C58.3167 15.0663 58.258 15.2557 58.258 15.483C58.258 15.8125 58.3773 16.0644 58.6159 16.2386C58.8584 16.4091 59.1652 16.4943 59.5364 16.4943ZM65.6358 18V9.27273H67.9824V10.7955H68.0733C68.2324 10.2538 68.4995 9.8447 68.8745 9.56818C69.2495 9.28788 69.6813 9.14773 70.1699 9.14773C70.2911 9.14773 70.4218 9.1553 70.562 9.17045C70.7021 9.18561 70.8252 9.20644 70.9313 9.23295V11.3807C70.8176 11.3466 70.6605 11.3163 70.4597 11.2898C70.2589 11.2633 70.0752 11.25 69.9086 11.25C69.5525 11.25 69.2343 11.3277 68.954 11.483C68.6775 11.6345 68.4578 11.8466 68.2949 12.1193C68.1358 12.392 68.0563 12.7064 68.0563 13.0625V18H65.6358ZM78.0336 6.36364L80.8461 15.2045H80.954L83.7722 6.36364H86.4995L82.4881 18H79.3176L75.3006 6.36364H78.0336ZM90.8475 18.1705C89.9498 18.1705 89.177 17.9886 88.5293 17.625C87.8854 17.2576 87.3891 16.7386 87.0407 16.0682C86.6922 15.3939 86.5179 14.5966 86.5179 13.6761C86.5179 12.7784 86.6922 11.9905 87.0407 11.3125C87.3891 10.6345 87.8797 10.1061 88.5123 9.72727C89.1486 9.34848 89.8948 9.15909 90.7509 9.15909C91.3266 9.15909 91.8626 9.25189 92.3588 9.4375C92.8588 9.61932 93.2944 9.89394 93.6657 10.2614C94.0407 10.6288 94.3323 11.0909 94.5407 11.6477C94.749 12.2008 94.8532 12.8485 94.8532 13.5909V14.2557H87.4838V12.7557H92.5748C92.5748 12.4072 92.499 12.0985 92.3475 11.8295C92.196 11.5606 91.9857 11.3504 91.7168 11.1989C91.4516 11.0436 91.1429 10.9659 90.7907 10.9659C90.4232 10.9659 90.0975 11.0511 89.8134 11.2216C89.5331 11.3883 89.3134 11.6136 89.1543 11.8977C88.9952 12.178 88.9138 12.4905 88.91 12.8352V14.2614C88.91 14.6932 88.9895 15.0663 89.1486 15.3807C89.3115 15.6951 89.5407 15.9375 89.8361 16.108C90.1316 16.2784 90.4819 16.3636 90.8873 16.3636C91.1562 16.3636 91.4024 16.3258 91.6259 16.25C91.8494 16.1742 92.0407 16.0606 92.1998 15.9091C92.3588 15.7576 92.4801 15.572 92.5634 15.3523L94.802 15.5C94.6884 16.0379 94.4554 16.5076 94.1032 16.9091C93.7547 17.3068 93.3039 17.6174 92.7509 17.8409C92.2016 18.0606 91.5672 18.1705 90.8475 18.1705ZM96.4327 18V9.27273H98.7793V10.7955H98.8702C99.0293 10.2538 99.2963 9.8447 99.6713 9.56818C100.046 9.28788 100.478 9.14773 100.967 9.14773C101.088 9.14773 101.219 9.1553 101.359 9.17045C101.499 9.18561 101.622 9.20644 101.728 9.23295V11.3807C101.615 11.3466 101.457 11.3163 101.257 11.2898C101.056 11.2633 100.872 11.25 100.705 11.25C100.349 11.25 100.031 11.3277 99.7509 11.483C99.4744 11.6345 99.2547 11.8466 99.0918 12.1193C98.9327 12.392 98.8532 12.7064 98.8532 13.0625V18H96.4327ZM102.98 18V9.27273H105.4V18H102.98ZM104.195 8.14773C103.836 8.14773 103.527 8.02841 103.269 7.78977C103.016 7.54735 102.889 7.25758 102.889 6.92045C102.889 6.58712 103.016 6.30114 103.269 6.0625C103.527 5.82008 103.836 5.69886 104.195 5.69886C104.555 5.69886 104.862 5.82008 105.116 6.0625C105.374 6.30114 105.502 6.58712 105.502 6.92045C105.502 7.25758 105.374 7.54735 105.116 7.78977C104.862 8.02841 104.555 8.14773 104.195 8.14773ZM112.032 9.27273V11.0909H106.646V9.27273H112.032ZM107.879 18V8.64205C107.879 8.00947 108.002 7.48485 108.248 7.06818C108.498 6.65151 108.839 6.33901 109.271 6.13068C109.703 5.92235 110.193 5.81818 110.742 5.81818C111.114 5.81818 111.453 5.84659 111.759 5.90341C112.07 5.96023 112.301 6.01136 112.453 6.05682L112.021 7.875C111.926 7.8447 111.809 7.81629 111.669 7.78977C111.532 7.76326 111.392 7.75 111.248 7.75C110.892 7.75 110.644 7.83333 110.504 8C110.364 8.16288 110.294 8.39205 110.294 8.6875V18H107.879ZM115.005 21.2727C114.698 21.2727 114.41 21.2481 114.142 21.1989C113.876 21.1534 113.657 21.0947 113.482 21.0227L114.028 19.2159C114.312 19.303 114.568 19.3504 114.795 19.358C115.026 19.3655 115.225 19.3125 115.392 19.1989C115.562 19.0852 115.7 18.892 115.806 18.6193L115.948 18.25L112.818 9.27273H115.363L117.17 15.6818H117.261L119.085 9.27273H121.647L118.255 18.9432C118.092 19.4129 117.871 19.822 117.59 20.1705C117.314 20.5227 116.963 20.7936 116.539 20.983C116.115 21.1761 115.604 21.2727 115.005 21.2727Z" fill="#062046"/>
<path d="M9 12C9 5.37258 14.5676 0 21.4355 0V24C14.5676 24 9 18.6274 9 12Z" fill="#347AE2"/>
<rect width="9" height="24" fill="#347AE2"/>
</svg>
