<svg width="211" height="36" viewBox="0 0 211 36" fill="none" xmlns="http://www.w3.org/2000/svg">
<g clip-path="url(#clip0_1388_1974)">
<path d="M0.701172 6.61554H9.4229C11.3783 6.57831 13.315 7.00206 15.0762 7.85245C16.6643 8.6224 17.9957 9.83539 18.9098 11.3451C19.8041 12.9371 20.2738 14.7324 20.2738 16.5583C20.2738 18.3843 19.8041 20.1796 18.9098 21.7715C17.9957 23.2813 16.6643 24.4943 15.0762 25.2642C13.3163 26.1201 11.3796 26.5492 9.4229 26.517H0.701172V6.61554ZM9.22072 23.3732C10.5519 23.4023 11.8711 23.1157 13.0702 22.5367C14.1401 22.0158 15.0304 21.1876 15.6272 20.158C16.2155 19.0522 16.5232 17.8188 16.5232 16.5662C16.5232 15.3137 16.2155 14.0803 15.6272 12.9745C15.0304 11.9449 14.1401 11.1167 13.0702 10.5958C11.8711 10.0168 10.5519 9.73018 9.22072 9.75934H4.40791V23.389L9.22072 23.3732Z" fill="#007AFF"/>
<path d="M27.0166 6.61523H30.7075V26.5166H27.0166V6.61523Z" fill="#007AFF"/>
<path d="M56.5993 6.61523V26.5166H53.5586L42.597 13.0376V26.5166H38.918V6.61523H41.9547L52.9203 20.0943V6.61523H56.5993Z" fill="#007AFF"/>
<path d="M101.885 26.517L97.8297 20.6774C97.5753 20.7 97.3199 20.7092 97.0645 20.7051H92.5689V26.517H88.874V6.61557H97.0566C98.601 6.58764 100.134 6.8848 101.556 7.48775C102.758 7.99215 103.783 8.84385 104.498 9.9338C105.2 11.0651 105.555 12.377 105.521 13.7079C105.557 15.0776 105.176 16.426 104.426 17.5732C103.655 18.6841 102.558 19.5278 101.287 19.9876L105.862 26.517H101.885ZM100.549 10.7822C99.7167 10.1056 98.4957 9.76597 96.8861 9.76332H92.5689V17.6922H96.8861C98.4957 17.6922 99.7167 17.3473 100.549 16.6575C100.969 16.296 101.301 15.8426 101.517 15.3325C101.734 14.8223 101.83 14.2692 101.798 13.7159C101.835 13.1603 101.741 12.6038 101.524 12.0909C101.307 11.5781 100.973 11.1231 100.549 10.7624V10.7822Z" fill="#007AFF"/>
<path d="M124.914 6.61523H127.015V24.6811H138.147V26.5166H124.914V6.61523Z" fill="black"/>
<path d="M147.42 25.3472C145.863 24.5081 144.566 23.2557 143.674 21.7277C142.788 20.1488 142.322 18.3686 142.322 16.558C142.322 14.7475 142.788 12.9673 143.674 11.3884C144.566 9.86039 145.863 8.60798 147.42 7.76891C149.068 6.90682 150.901 6.45654 152.76 6.45654C154.62 6.45654 156.453 6.90682 158.101 7.76891C159.653 8.61156 160.944 9.86339 161.835 11.3884C162.729 12.9698 163.199 14.7554 163.199 16.5719C163.199 18.3884 162.729 20.1741 161.835 21.7554C160.945 23.2824 159.654 24.5358 158.101 25.3789C156.453 26.241 154.62 26.6913 152.76 26.6913C150.901 26.6913 149.068 26.241 147.42 25.3789V25.3472ZM157.034 23.7416C158.283 23.0521 159.316 22.0297 160.019 20.7881C160.727 19.4947 161.098 18.0442 161.098 16.5699C161.098 15.0957 160.727 13.6451 160.019 12.3518C159.315 11.1111 158.282 10.089 157.034 9.3983C155.731 8.67928 154.264 8.31175 152.776 8.33187C151.282 8.31284 149.809 8.6802 148.499 9.3983C147.244 10.0881 146.203 11.1099 145.49 12.3518C144.772 13.6419 144.396 15.0937 144.396 16.5699C144.396 18.0462 144.772 19.498 145.49 20.7881C146.202 22.0308 147.243 23.0529 148.499 23.7416C149.809 24.4597 151.282 24.827 152.776 24.808C154.264 24.8281 155.731 24.4606 157.034 23.7416Z" fill="black"/>
<path d="M174.061 25.3633C172.509 24.5235 171.222 23.269 170.342 21.7398C169.456 20.156 168.99 18.3713 168.99 16.5563C168.99 14.7413 169.456 12.9566 170.342 11.3728C171.227 9.84288 172.52 8.58956 174.077 7.75328C175.716 6.87003 177.555 6.42102 179.417 6.44898C180.814 6.43467 182.2 6.68487 183.504 7.18636C184.711 7.65509 185.796 8.39263 186.676 9.34301L185.34 10.679C184.574 9.90286 183.657 9.2928 182.646 8.88695C181.634 8.48109 180.55 8.28816 179.46 8.32019C177.961 8.3016 176.482 8.67464 175.171 9.40247C173.911 10.0916 172.865 11.1132 172.146 12.356C171.429 13.6404 171.052 15.0871 171.052 16.5583C171.052 18.0294 171.429 19.4761 172.146 20.7606C172.865 22.0033 173.911 23.0249 175.171 23.714C176.482 24.4419 177.961 24.8149 179.46 24.7963C180.552 24.8328 181.64 24.64 182.652 24.2303C183.665 23.8206 184.58 23.2031 185.34 22.4177L186.676 23.7537C185.787 24.7086 184.695 25.4511 183.48 25.9262C182.171 26.4348 180.777 26.6891 179.373 26.6755C177.519 26.6994 175.69 26.2477 174.061 25.3633Z" fill="black"/>
<path d="M200.175 17.1527L196.116 21.2717V26.5166H194.015V6.61523H196.116V18.6314L207.787 6.61523H210.201L201.599 15.6224L210.816 26.5166H208.314L200.175 17.1527Z" fill="black"/>
<path d="M74.5303 6.61523H70.8949L61.9512 26.4968H65.757L65.7848 26.4334H65.6896L69.1506 18.564L69.2417 18.3539L72.6868 10.3101L76.2469 18.564L76.4332 19.0001H76.4292L77.6503 21.8981H77.6543L79.6444 26.4968H83.5057L74.5303 6.61523Z" fill="#007AFF"/>
<path d="M114.849 0.748047H114.056V35.635H114.849V0.748047Z" fill="black"/>
</g>
<defs>
<clipPath id="clip0_1388_1974">
<rect width="210.083" height="34.8869" fill="white" transform="translate(0.716797 0.748047)"/>
</clipPath>
</defs>
</svg>
