<svg width="243" height="224" viewBox="0 0 243 224" fill="none" xmlns="http://www.w3.org/2000/svg">
<circle cx="121.946" cy="112.02" r="75" transform="rotate(-8.41987 121.946 112.02)" fill="#F8FBFF"/>
<ellipse cx="122.312" cy="114.493" rx="15" ry="22.5" transform="rotate(-8.41987 122.312 114.493)" fill="#82CBFC"/>
<g filter="url(#filter0_d_1439_1876)">
<path d="M127.089 117.745L124.741 118.093L122.358 101.997C122.239 101.189 121.617 100.612 120.969 100.707L118.972 101.003C118.279 101.106 117.637 101.464 117.128 102.03L115.154 104.231C114.682 104.76 114.67 105.691 115.128 106.309L116.793 108.551C117.251 109.169 118.01 109.244 118.482 108.716L118.543 108.648L120.043 118.788L117.694 119.136C117.044 119.232 116.616 119.964 116.735 120.773L117.168 123.699C117.288 124.508 117.91 125.085 118.561 124.988L127.956 123.598C128.607 123.501 129.035 122.769 128.915 121.96L128.482 119.034C128.363 118.226 127.74 117.649 127.089 117.745ZM158.618 71.2101L74.0362 83.73C71.4445 84.1136 69.7268 87.0459 70.2052 90.2782L78.8688 148.807C79.3472 152.039 81.84 154.348 84.4324 153.965L169.014 141.445C171.606 141.061 173.323 138.129 172.845 134.897L164.181 76.3677C163.703 73.1355 161.21 70.8264 158.618 71.2101ZM85.4853 144.837L83.7525 133.131C88.9433 132.363 93.923 136.982 94.8799 143.447L85.4853 144.837ZM79.4208 103.867L77.6881 92.1611L87.0827 90.7705C88.0396 97.235 84.6115 103.099 79.4208 103.867ZM124.557 133.073C116.771 134.225 109.103 125.985 107.429 114.674C105.754 103.36 110.707 93.2548 118.493 92.1023C126.279 90.9498 133.947 99.1865 135.621 110.501C137.297 121.818 132.341 131.92 124.557 133.073ZM165.362 133.014L155.967 134.404C155.01 127.94 158.439 122.076 163.629 121.308L165.362 133.014ZM159.297 92.0435C154.107 92.8118 149.127 88.1928 148.17 81.7283L157.565 80.3377L159.297 92.0435Z" fill="white"/>
</g>
<defs>
<filter id="filter0_d_1439_1876" x="0.125" y="0.168457" width="242.8" height="222.838" filterUnits="userSpaceOnUse" color-interpolation-filters="sRGB">
<feFlood flood-opacity="0" result="BackgroundImageFix"/>
<feColorMatrix in="SourceAlpha" type="matrix" values="0 0 0 0 0 0 0 0 0 0 0 0 0 0 0 0 0 0 127 0" result="hardAlpha"/>
<feOffset dy="-1"/>
<feGaussianBlur stdDeviation="35"/>
<feComposite in2="hardAlpha" operator="out"/>
<feColorMatrix type="matrix" values="0 0 0 0 0 0 0 0 0 0.170527 0 0 0 0 0.504167 0 0 0 0.14 0"/>
<feBlend mode="normal" in2="BackgroundImageFix" result="effect1_dropShadow_1439_1876"/>
<feBlend mode="normal" in="SourceGraphic" in2="effect1_dropShadow_1439_1876" result="shape"/>
</filter>
</defs>
</svg>
