<svg width="231" height="189" viewBox="0 0 231 189" fill="none" xmlns="http://www.w3.org/2000/svg">
<g clip-path="url(#clip0_2801_50527)">
<path d="M115.697 189.941C162.725 189.941 200.848 182.817 200.848 174.03C200.848 165.243 162.725 158.119 115.697 158.119C68.6687 158.119 30.5449 165.243 30.5449 174.03C30.5449 182.817 68.6687 189.941 115.697 189.941Z" fill="#F5F5F7" fill-opacity="0.8"/>
<path fill-rule="evenodd" clip-rule="evenodd" d="M183.817 127.288L153.768 90.3053C152.326 88.5645 150.219 87.5107 147.999 87.5107H83.3917C81.1737 87.5107 79.0661 88.5645 77.6243 90.3053L47.5762 127.288V146.608H183.819V127.288H183.817Z" fill="#AEB8C2"/>
<path fill-rule="evenodd" clip-rule="evenodd" d="M73.0347 39.7783H158.357C159.69 39.7783 160.968 40.3076 161.91 41.2498C162.852 42.192 163.381 43.4698 163.381 44.8022V162.041C163.381 163.373 162.852 164.651 161.91 165.593C160.968 166.535 159.69 167.064 158.357 167.064H73.0347C71.7022 167.064 70.4244 166.535 69.4822 165.593C68.54 164.651 68.0107 163.373 68.0107 162.041V44.8022C68.0107 43.4698 68.54 42.192 69.4822 41.2498C70.4244 40.3076 71.7022 39.7783 73.0347 39.7783V39.7783Z" fill="#F5F5F7"/>
<path fill-rule="evenodd" clip-rule="evenodd" d="M84.1471 52.2783H147.244C147.91 52.2783 148.549 52.543 149.02 53.0141C149.491 53.4851 149.756 54.1241 149.756 54.7903V86.1358C149.756 86.802 149.491 87.4409 149.02 87.912C148.549 88.3831 147.91 88.6478 147.244 88.6478H84.1471C83.4809 88.6478 82.842 88.3831 82.3709 87.912C81.8998 87.4409 81.6352 86.802 81.6352 86.1358V54.7903C81.6352 54.1241 81.8998 53.4851 82.3709 53.0141C82.842 52.543 83.4809 52.2783 84.1471 52.2783V52.2783ZM84.4762 102.284H146.915C147.668 102.284 148.391 102.583 148.924 103.116C149.456 103.649 149.756 104.371 149.756 105.125C149.756 105.878 149.456 106.601 148.924 107.134C148.391 107.667 147.668 107.966 146.915 107.966H84.4762C83.7227 107.966 83.0001 107.667 82.4673 107.134C81.9345 106.601 81.6352 105.878 81.6352 105.125C81.6352 104.371 81.9345 103.649 82.4673 103.116C83.0001 102.583 83.7227 102.284 84.4762 102.284V102.284ZM84.4762 117.058H146.915C147.668 117.058 148.391 117.357 148.924 117.89C149.457 118.423 149.756 119.146 149.756 119.9C149.756 120.653 149.457 121.376 148.924 121.909C148.391 122.442 147.668 122.741 146.915 122.741H84.4762C83.7225 122.741 82.9998 122.442 82.4668 121.909C81.9339 121.376 81.6345 120.653 81.6345 119.9C81.6345 119.146 81.9339 118.423 82.4668 117.89C82.9998 117.357 83.7225 117.058 84.4762 117.058V117.058ZM183.539 171.696C182.566 175.553 179.147 178.428 175.08 178.428H56.3108C52.244 178.428 48.8252 175.552 47.853 171.696C47.6676 170.961 47.574 170.206 47.5742 169.448V127.288H80.6291C84.2803 127.288 87.223 130.363 87.223 134.095V134.146C87.223 137.877 90.1997 140.89 93.8508 140.89H137.54C141.191 140.89 144.168 137.85 144.168 134.117V134.102C144.168 130.369 147.111 127.287 150.762 127.287H183.817V169.449C183.817 170.224 183.72 170.976 183.539 171.696V171.696Z" fill="#DCE0E6"/>
<path fill-rule="evenodd" clip-rule="evenodd" d="M187.695 41.8141L179.116 45.1425C178.896 45.2282 178.656 45.2499 178.424 45.2052C178.192 45.1605 177.977 45.0512 177.804 44.8898C177.631 44.7284 177.507 44.5215 177.447 44.2929C177.387 44.0643 177.392 43.8233 177.462 43.5976L179.895 35.8017C176.643 32.1041 174.734 27.5952 174.734 22.7295C174.734 10.176 187.442 0 203.12 0C218.793 0 231.502 10.176 231.502 22.7295C231.502 35.283 218.794 45.459 203.118 45.459C197.431 45.459 192.136 44.1201 187.695 41.8141Z" fill="#DCE0E6"/>
<path d="M214.3 26.8339C216.276 26.8339 217.878 25.2509 217.878 23.2983C217.878 21.3456 216.276 19.7627 214.3 19.7627C212.324 19.7627 210.722 21.3456 210.722 23.2983C210.722 25.2509 212.324 26.8339 214.3 26.8339Z" fill="white"/>
<path fill-rule="evenodd" clip-rule="evenodd" d="M195.515 26.3911H188.358L191.998 20.2041L195.515 26.3911ZM199.988 20.2041H206.249V26.3911H199.988V20.2041Z" fill="white"/>
</g>
<defs>
<clipPath id="clip0_2801_50527">
<rect width="231" height="189" fill="white"/>
</clipPath>
</defs>
</svg>
